<?xml version="1.0" encoding="iso-8859-1"?>
<!-- Generator: Adobe Illustrator 19.0.0, SVG Export Plug-In . SVG Version: 6.00 Build 0)  -->
<svg version="1.1" id="Capa_1" xmlns="http://www.w3.org/2000/svg" xmlns:xlink="http://www.w3.org/1999/xlink" x="0px" y="0px"
	 viewBox="0 0 480.009 480.009" style="enable-background:new 0 0 480.009 480.009;" xml:space="preserve">
<g>
	<g>
		<path d="M409.609,224.005c26.55-40.602,15.159-95.041-25.443-121.591c-37.223-24.341-86.765-17.019-115.357,17.047
			c-62.097-33.645-139.712-10.58-173.357,51.517c-10.152,18.738-15.461,39.716-15.443,61.027c-0.003,5.73,0.368,11.454,1.112,17.136
			c-52.355,8.199-88.151,57.287-79.952,109.641c6.654,42.495,40.775,75.369,83.488,80.439c1.047,0.501,2.191,0.769,3.352,0.784h288
			c1.101,0.004,2.191-0.222,3.2-0.664c57.106-5.917,100.57-53.925,100.8-111.336C479.828,282.262,452.01,241.168,409.609,224.005z
			 M336.009,104.005c39.765,0.006,71.995,32.246,71.99,72.01c-0.002,15.178-4.801,29.966-13.71,42.254
			c-0.36-0.896-0.8-1.752-1.168-2.632c-0.368-0.88-0.728-1.728-1.136-2.56c-0.408-0.832-0.928-1.792-1.4-2.688
			s-0.952-1.84-1.472-2.736c-0.416-0.712-0.872-1.392-1.312-2.088c-0.632-1.032-1.264-2.072-1.944-3.064
			c-0.304-0.432-0.632-0.84-0.944-1.272c-0.864-1.216-1.736-2.4-2.672-3.576l-0.128-0.152c-12.413-15.343-30.096-25.51-49.6-28.52
			l-0.36-0.064c-1.6-0.232-3.136-0.392-4.712-0.536c-0.52-0.048-1.024-0.12-1.544-0.152c-1.224-0.088-2.464-0.112-3.704-0.144
			c-0.728,0-1.44-0.08-2.168-0.08h-1.168c-2.505-4.275-5.251-8.404-8.224-12.368c-0.992-1.328-2.096-2.552-3.136-3.84
			c-2.072-2.568-4.184-5.104-6.448-7.504c-1.312-1.392-2.696-2.704-4.064-4c-2.208-2.144-4.472-4.224-6.832-6.208
			c-1.504-1.256-3.024-2.48-4.584-3.672c-1.048-0.8-2.008-1.696-3.072-2.464C296.127,112.733,315.582,104.028,336.009,104.005z
			 M375.273,423.693v0.024c-2.4,0.216-4.8,0.288-7.264,0.288h-272c-2.472,0-4.864-0.152-7.264-0.368
			c-43.994-4.083-76.348-43.056-72.265-87.05c3.635-39.165,35.2-69.877,74.449-72.438c2.313-0.152,4.449-1.292,5.864-3.128
			c1.407-1.844,1.944-4.209,1.472-6.48c-12.512-60.577,26.452-119.828,87.029-132.34c48.987-10.118,98.744,13.474,121.915,57.804
			c1.471,2.867,4.545,4.545,7.752,4.232c1.669-0.155,3.352-0.232,5.048-0.232c27.838-0.073,52.507,17.919,60.944,44.448
			c0.888,2.759,3.199,4.821,6.04,5.392c2.568,0.52,5.064,1.104,7.592,1.848c50.959,14.636,80.404,67.812,65.768,118.771
			C449.266,393.065,415.322,420.685,375.273,423.693z"/>
	</g>
</g>
<g>
	<g>
		<rect x="328.009" y="40.005" width="16" height="32"/>
	</g>
</g>
<g>
	<g>
		<rect x="243.165" y="75.141" transform="matrix(0.7071 -0.7071 0.7071 0.7071 9.1186 204.2957)" width="16" height="32"/>
	</g>
</g>
<g>
	<g>
		<rect x="440.009" y="168.005" width="32" height="16"/>
	</g>
</g>
<g>
	<g>
		<rect x="404.868" y="83.141" transform="matrix(0.7071 -0.7071 0.7071 0.7071 58.8228 324.2936)" width="32" height="16"/>
	</g>
</g>
<g>
</g>
<g>
</g>
<g>
</g>
<g>
</g>
<g>
</g>
<g>
</g>
<g>
</g>
<g>
</g>
<g>
</g>
<g>
</g>
<g>
</g>
<g>
</g>
<g>
</g>
<g>
</g>
<g>
</g>
</svg>
