<svg id="Capa_1" enable-background="new 0 0 512.013 512.013" height="512" viewBox="0 0 512.013 512.013" width="512" xmlns="http://www.w3.org/2000/svg"><g><path d="m441.754 165.749c-2.254-6.581-5.392-12.694-9.252-18.227l5.738.012c31.54 0 57.2-25.66 57.2-57.2 0-31.541-25.66-57.2-57.2-57.2-1.56 0-3.136.067-4.716.2-13.518-20.684-36.655-33.334-61.551-33.334-31.954 0-59.654 20.206-69.633 49.935-1.59-.156-3.188-.234-4.788-.234-15.729 0-30.361 7.718-39.42 20.067-4.452-5.512-9.5-10.563-15.071-15.026-17.395-13.934-39.273-21.608-61.605-21.608-21.287 0-41.558 6.676-58.619 19.306-3.329 2.465-4.03 7.161-1.567 10.491 2.466 3.329 7.161 4.029 10.49 1.566 14.461-10.705 31.645-16.362 49.695-16.362 29.426 0 55.71 15.094 70.67 38.792l.926 1.512c3.392 5.635 6.149 11.735 8.173 18.217-17.757 9.918-29.286 28.845-29.286 49.947 0 4.142 3.357 7.5 7.5 7.5s7.5-3.358 7.5-7.5c0-17.244 10.433-32.516 25.982-38.97.023-.009-.023.01 0 0 5.13-2.127 10.632-3.23 16.218-3.23 16.235 0 31.217 9.494 38.167 24.186.943 1.996 2.72 3.475 4.853 4.042 2.132.566 4.409.166 6.22-1.1 9.894-6.909 21.51-10.561 33.593-10.561 26.854 0 50.264 18.141 56.927 44.116.871 3.401 3.944 5.735 7.498 5.633 0 0 1.397-.049 1.842-.049 32.404 0 58.767 26.363 58.767 58.767s-26.362 58.767-58.767 58.767-58.767-26.363-58.767-58.767c0-4.142-3.357-7.5-7.5-7.5s-7.5 3.358-7.5 7.5c0 23.962 11.491 45.284 29.244 58.767h-88.65l4.12-12.359c1.6-4.8.789-10.115-2.169-14.22-2.958-4.104-7.745-6.555-12.805-6.555h-64.466c-7.591 0-14.114 5.415-15.513 12.874l-3.799 20.259h-73.993c-4.143 0-7.5 3.358-7.5 7.5s3.357 7.5 7.5 7.5h71.184l-15.132 80.708c-.869 4.63.358 9.364 3.367 12.989 3.008 3.625 7.435 5.704 12.145 5.704h38.148c.091 0 .365 0 .601.279.234.279.187.549.171.639l-14.816 84.911c-.947 5.679 2.184 10.981 7.613 12.894 1.321.466 2.662.69 3.976.69 4.085 0 7.904-2.166 10.04-5.961.048-.085.095-.172.14-.259l60.612-118.348c2.526-4.932 2.31-10.7-.581-15.428s-7.924-7.551-13.466-7.551h-16.375c-.1 0-.401 0-.636-.325-.234-.325-.139-.612-.107-.706l16.745-50.235h138.171c40.675 0 73.767-33.092 73.767-73.767 0-39.502-31.202-71.849-70.253-73.688zm-104.999-40.832c-10.508-15.723-28.413-25.517-47.615-25.517-4.74 0-9.4.574-13.932 1.712-2.021-6.166-4.668-12.109-7.854-17.749 5.677-11.28 17.403-18.663 30.198-18.663 2.809 0 5.607.348 8.316 1.033 1.95.493 4.021.182 5.74-.865 1.72-1.047 2.946-2.741 3.403-4.702 6.205-26.593 29.627-45.166 56.962-45.166 17.901 0 34.661 8.222 45.668 21.953-21.733 8.336-36.602 29.296-36.602 53.38 0 4.142 3.357 7.5 7.5 7.5s7.5-3.358 7.5-7.5c0-20.507 14.601-37.952 34.736-41.54.051-.008 5.065-.66 7.464-.66 23.27 0 42.2 18.931 42.2 42.2s-18.931 42.2-42.185 42.2l-19.734-.04c-12.816-10.412-29.099-16.526-46.548-16.526-12.419 0-24.446 3.074-35.217 8.95zm-67.663 233.775c-1.6 4.8-.789 10.116 2.169 14.22s7.745 6.555 12.805 6.555h16.375c.132 0 .438 0 .668.375.229.374.089.648.028.766l-50.425 98.456 10.988-62.965c.803-4.602-.46-9.293-3.466-12.869-3.007-3.577-7.41-5.628-12.083-5.628h-38.148c-.091 0-.367 0-.603-.283-.234-.283-.184-.555-.167-.645l16.773-89.456c.001-.005.002-.009.003-.014l4.968-26.497c.068-.37.393-.638.77-.638h64.466c.1 0 .401 0 .636.325.234.325.139.611.107.706l-7.452 22.358c-.002.007-.005.013-.007.02z"/><path d="m106.441 298.2h-16.101c-41.539 0-75.333-33.794-75.333-75.333 0-41.514 33.755-75.293 75.259-75.334.142.005.283.009.425.01.004 0 .007-.001.011-.001 41.373.196 74.972 33.907 74.972 75.324 0 4.142 3.357 7.5 7.5 7.5s7.5-3.358 7.5-7.5c0-47.276-36.506-86.18-82.808-90.018-.005-.365-.025-.738-.025-1.099 0-17.117 5.134-33.57 14.848-47.581 2.359-3.404 1.514-8.077-1.891-10.437-3.406-2.361-8.077-1.514-10.438 1.891-11.461 16.532-17.52 35.94-17.52 56.126 0 .362.002.726.006 1.091-46.316 3.821-82.839 42.739-82.839 90.025 0 49.81 40.523 90.333 90.333 90.333h16.102c4.142 0 7.5-3.358 7.5-7.5-.001-4.139-3.358-7.497-7.501-7.497z"/><path d="m40.64 331.333c-4.143 0-7.5 3.358-7.5 7.5v66.267c0 4.142 3.357 7.5 7.5 7.5s7.5-3.358 7.5-7.5v-66.267c0-4.142-3.357-7.5-7.5-7.5z"/><path d="m148.323 331.333c-4.143 0-7.5 3.358-7.5 7.5v66.267c0 4.142 3.357 7.5 7.5 7.5s7.5-3.358 7.5-7.5v-66.267c0-4.142-3.357-7.5-7.5-7.5z"/><path d="m94.481 430.733c-4.143 0-7.5 3.358-7.5 7.5v66.267c0 4.142 3.357 7.5 7.5 7.5s7.5-3.358 7.5-7.5v-66.267c0-4.142-3.357-7.5-7.5-7.5z"/><path d="m363.69 331.333c-4.143 0-7.5 3.358-7.5 7.5v66.267c0 4.142 3.357 7.5 7.5 7.5s7.5-3.358 7.5-7.5v-66.267c0-4.142-3.357-7.5-7.5-7.5z"/><path d="m471.373 331.333c-4.143 0-7.5 3.358-7.5 7.5v66.267c0 4.142 3.357 7.5 7.5 7.5s7.5-3.358 7.5-7.5v-66.267c0-4.142-3.358-7.5-7.5-7.5z"/><path d="m417.532 430.733c-4.143 0-7.5 3.358-7.5 7.5v66.267c0 4.142 3.357 7.5 7.5 7.5s7.5-3.358 7.5-7.5v-66.267c0-4.142-3.357-7.5-7.5-7.5z"/></g></svg>