<?xml version="1.0" encoding="iso-8859-1"?>
<!-- Generator: Adobe Illustrator 19.0.0, SVG Export Plug-In . SVG Version: 6.00 Build 0)  -->
<svg version="1.1" id="Capa_1" xmlns="http://www.w3.org/2000/svg" xmlns:xlink="http://www.w3.org/1999/xlink" x="0px" y="0px"
	 viewBox="0 0 512 512" style="enable-background:new 0 0 512 512;" xml:space="preserve">
<g>
	<g>
		<path d="M426.667,332.8H110.933c-4.71,0-8.533,3.823-8.533,8.533c0,4.71,3.823,8.533,8.533,8.533h315.733
			c37.641,0,68.267,30.626,68.267,68.267c0,37.641-30.626,68.267-68.267,68.267S358.4,455.774,358.4,418.133
			c0-4.71-3.823-8.533-8.533-8.533s-8.533,3.823-8.533,8.533c0,47.053,38.281,85.333,85.333,85.333S512,465.186,512,418.133
			S473.719,332.8,426.667,332.8z"/>
	</g>
</g>
<g>
	<g>
		<path d="M247.467,375.467h-179.2c-4.71,0-8.533,3.823-8.533,8.533s3.823,8.533,8.533,8.533h179.2
			c23.526,0,42.667,19.14,42.667,42.667s-19.14,42.667-42.667,42.667c-23.526,0-42.667-19.14-42.667-42.667
			c0-4.71-3.823-8.533-8.533-8.533s-8.533,3.823-8.533,8.533c0,32.939,26.795,59.733,59.733,59.733S307.2,468.139,307.2,435.2
			S280.405,375.467,247.467,375.467z"/>
	</g>
</g>
<g>
	<g>
		<path d="M452.267,110.933c-32.939,0-59.733,26.795-59.733,59.733c0,4.71,3.823,8.533,8.533,8.533s8.533-3.823,8.533-8.533
			c0-23.526,19.14-42.667,42.667-42.667c23.526,0,42.667,19.14,42.667,42.667c0,23.526-19.14,42.667-42.667,42.667H384
			c-4.71,0-8.533,3.823-8.533,8.533c0,4.71,3.823,8.533,8.533,8.533h68.267c32.939,0,59.733-26.795,59.733-59.733
			S485.205,110.933,452.267,110.933z"/>
	</g>
</g>
<g>
	<g>
		<path d="M34.133,375.467h-25.6C3.823,375.467,0,379.29,0,384s3.823,8.533,8.533,8.533h25.6c4.71,0,8.533-3.823,8.533-8.533
			S38.844,375.467,34.133,375.467z"/>
	</g>
</g>
<g>
	<g>
		<path d="M503.467,264.533h-8.533c-4.71,0-8.533,3.823-8.533,8.533c0,4.71,3.823,8.533,8.533,8.533h8.533
			c4.71,0,8.533-3.823,8.533-8.533C512,268.356,508.177,264.533,503.467,264.533z"/>
	</g>
</g>
<g>
	<g>
		<path d="M460.8,264.533H8.533c-4.71,0-8.533,3.823-8.533,8.533c0,4.71,3.823,8.533,8.533,8.533H460.8
			c4.71,0,8.533-3.823,8.533-8.533C469.333,268.356,465.51,264.533,460.8,264.533z"/>
	</g>
</g>
<g>
	<g>
		<path d="M213.589,8.533c-4.71,0-8.533,3.823-8.533,8.533V51.2c0,4.71,3.823,8.533,8.533,8.533s8.533-3.823,8.533-8.533V17.067
			C222.123,12.356,218.3,8.533,213.589,8.533z"/>
	</g>
</g>
<g>
	<g>
		<path d="M42.923,213.333H8.789c-4.71,0-8.533,3.823-8.533,8.533c0,4.71,3.823,8.533,8.533,8.533h34.133
			c4.71,0,8.533-3.823,8.533-8.533C51.456,217.156,47.633,213.333,42.923,213.333z"/>
	</g>
</g>
<g>
	<g>
		<path d="M98.935,95.155L74.803,71.014c-3.328-3.337-8.73-3.337-12.066,0s-3.337,8.73,0,12.066l24.132,24.141
			c1.664,1.664,3.849,2.5,6.033,2.5s4.369-0.836,6.033-2.5C102.272,103.885,102.272,98.492,98.935,95.155z"/>
	</g>
</g>
<g>
	<g>
		<path d="M364.433,71.014c-3.337-3.337-8.73-3.337-12.066,0l-24.141,24.141c-3.336,3.336-3.336,8.73,0,12.066
			c1.664,1.664,3.849,2.5,6.033,2.5s4.369-0.836,6.033-2.5l24.141-24.141C367.77,79.744,367.77,74.351,364.433,71.014z"/>
	</g>
</g>
<g>
	<g>
		<path d="M213.589,76.8c-79.991,0-145.067,65.075-145.067,145.067c0,18.671,3.576,36.975,10.633,54.4
			c1.306,3.226,4.437,5.333,7.91,5.333h253.03c3.482,0,6.605-2.108,7.919-5.333c7.066-17.425,10.641-35.729,10.641-54.4
			C358.656,141.875,293.581,76.8,213.589,76.8z M334.217,264.533H92.954c-4.89-13.764-7.364-28.092-7.373-42.667
			c0-70.579,57.421-128,128-128s128,57.421,128,128C341.581,236.442,339.106,250.761,334.217,264.533z"/>
	</g>
</g>
<g>
	<g>
		<path d="M213.589,110.933c-0.009,0-0.009,0-0.017,0c-17.493,0-35.243,5.82-55.859,18.295c-4.028,2.449-5.316,7.689-2.876,11.725
			c1.604,2.654,4.42,4.113,7.305,4.113c1.502,0,3.029-0.393,4.412-1.237C184.397,133.026,199.33,128,213.572,128
			c0.009,0,0.017-0.009,0.017,0c4.71,0,8.533-3.823,8.533-8.533S218.3,110.933,213.589,110.933z"/>
	</g>
</g>
<g>
	<g>
		<path d="M132.685,154.999c-3.942-2.577-9.233-1.485-11.819,2.458c-11.238,17.135-18.21,41.813-18.21,64.41
			c0,4.71,3.823,8.533,8.533,8.533s8.533-3.823,8.533-8.525c0-19.157,6.05-40.772,15.42-55.057
			C137.728,162.876,136.627,157.585,132.685,154.999z"/>
	</g>
</g>
<g>
</g>
<g>
</g>
<g>
</g>
<g>
</g>
<g>
</g>
<g>
</g>
<g>
</g>
<g>
</g>
<g>
</g>
<g>
</g>
<g>
</g>
<g>
</g>
<g>
</g>
<g>
</g>
<g>
</g>
</svg>
